<svg width="218" height="315" viewBox="0 0 218 315" fill="none" xmlns="http://www.w3.org/2000/svg">
<g filter="url(#filter0_di_546_403)">
<path d="M126.036 279.574H146.463C161.505 279.574 173.698 291.768 173.698 306.81H133.036C129.17 306.81 126.036 303.676 126.036 299.81V279.574Z" fill="#D17777"/>
</g>
<rect x="126.036" y="298.298" width="47.6623" height="8.51112" fill="white"/>
<g filter="url(#filter1_di_546_403)">
<path d="M96.2473 279.574H75.8206C60.7788 279.574 48.585 291.768 48.585 306.81H89.2473C93.1133 306.81 96.2473 303.676 96.2473 299.81V279.574Z" fill="#D17777"/>
</g>
<rect width="47.6623" height="8.51112" transform="matrix(-1 0 0 1 96.2473 298.298)" fill="white"/>
<g filter="url(#filter2_ii_546_403)">
<path fill-rule="evenodd" clip-rule="evenodd" d="M213.375 214.943C215.807 205.428 217.105 194.921 217.105 183.398C217.105 175.377 216.476 166.812 215.273 157.931L191.012 180.199L214.36 151.802C211.412 133.628 206.181 114.382 199.117 95.9267L173.138 119.77L197.052 90.6853C189.685 72.4996 180.546 55.272 170.079 40.8361L142.498 66.1497L166.852 36.5299C159.4 26.9119 151.328 18.7298 142.785 12.5976L119.227 36.1559L134.34 7.30421C126.085 2.87459 117.461 0.40918 108.588 0.40918C100.073 0.40918 91.7873 2.67967 83.8373 6.7777L99.2259 36.1559L75.1376 12.0676C67.7365 17.26 60.6835 23.9946 54.0739 31.8758L78.7556 61.8941L50.7122 36.156L50.8411 35.866C40.0547 49.6374 30.5481 66.4233 22.7651 84.3834L45.5623 112.11L20.6949 89.2865C13.3573 107.128 7.7225 125.943 4.2116 143.985L27.6888 172.539L3.11735 149.987C1.12637 161.706 0.0712891 173.008 0.0712891 183.398C0.0712891 191.426 0.701148 198.962 1.9059 206.012L16.8894 200.421L63.0537 226.805L16.8894 210.073L3.21533 212.537C14.8782 262.906 57.6316 286.383 108.588 286.383C156.554 286.383 197.252 265.581 211.591 221.127L199.878 216.882L149.867 225.892L199.878 207.229L213.375 214.943ZM106.991 179.038L58.4737 201.296L107.695 188.665L154.956 201.987L106.991 179.038ZM32.3629 155.778L64.6977 145.94L85.2183 175.738L62.6333 154.545L32.3629 155.778ZM147.165 144.928L131.742 175.002L151.912 152.397L182.848 150.912L147.165 144.928ZM79.8455 139.059L105.923 121.592L132.198 142.533L106.41 129.796L79.8455 139.059ZM111.029 47.5449L84.952 65.0125L111.517 55.7488L137.304 68.486L111.029 47.5449ZM51.176 90.8726L81.6175 83.2274L99.2865 111.806L79.3087 91.1149L51.176 90.8726ZM132.887 83.2274L163.328 90.8726L135.195 91.1149L115.218 111.806L132.887 83.2274Z" fill="#D17777"/>
</g>
<g filter="url(#filter3_di_546_403)">
<path d="M94.5 265.5C98.8333 268.667 111.5 273.1 127.5 265.5" stroke="#FFC4C4" stroke-width="5" stroke-linecap="round"/>
</g>
<g filter="url(#filter4_di_546_403)">
<circle cx="135.585" cy="230.415" r="20.4153" fill="white"/>
</g>
<mask id="mask0_546_403" style="mask-type:alpha" maskUnits="userSpaceOnUse" x="115" y="210" width="41" height="41">
<circle cx="135.585" cy="230.415" r="20.4153" fill="white"/>
</mask>
<g mask="url(#mask0_546_403)">
</g>
<g filter="url(#filter5_di_546_403)">
<circle cx="83.5334" cy="231.776" r="20.4153" fill="white"/>
</g>
<mask id="mask1_546_403" style="mask-type:alpha" maskUnits="userSpaceOnUse" x="63" y="211" width="41" height="42">
<circle cx="83.5334" cy="231.776" r="20.4153" fill="white"/>
</mask>
<g mask="url(#mask1_546_403)">
</g>
<defs>
<filter id="filter0_di_546_403" x="122.036" y="275.574" width="56.6624" height="39.2356" filterUnits="userSpaceOnUse" color-interpolation-filters="sRGB">
<feFlood flood-opacity="0" result="BackgroundImageFix"/>
<feColorMatrix in="SourceAlpha" type="matrix" values="0 0 0 0 0 0 0 0 0 0 0 0 0 0 0 0 0 0 127 0" result="hardAlpha"/>
<feOffset dy="4"/>
<feGaussianBlur stdDeviation="2"/>
<feComposite in2="hardAlpha" operator="out"/>
<feColorMatrix type="matrix" values="0 0 0 0 0 0 0 0 0 0 0 0 0 0 0 0 0 0 0.25 0"/>
<feBlend mode="normal" in2="BackgroundImageFix" result="effect1_dropShadow_546_403"/>
<feBlend mode="normal" in="SourceGraphic" in2="effect1_dropShadow_546_403" result="shape"/>
<feColorMatrix in="SourceAlpha" type="matrix" values="0 0 0 0 0 0 0 0 0 0 0 0 0 0 0 0 0 0 127 0" result="hardAlpha"/>
<feOffset dx="5" dy="-4"/>
<feGaussianBlur stdDeviation="7.5"/>
<feComposite in2="hardAlpha" operator="arithmetic" k2="-1" k3="1"/>
<feColorMatrix type="matrix" values="0 0 0 0 0 0 0 0 0 0 0 0 0 0 0 0 0 0 0.25 0"/>
<feBlend mode="normal" in2="shape" result="effect2_innerShadow_546_403"/>
</filter>
<filter id="filter1_di_546_403" x="44.585" y="275.574" width="56.6624" height="39.2356" filterUnits="userSpaceOnUse" color-interpolation-filters="sRGB">
<feFlood flood-opacity="0" result="BackgroundImageFix"/>
<feColorMatrix in="SourceAlpha" type="matrix" values="0 0 0 0 0 0 0 0 0 0 0 0 0 0 0 0 0 0 127 0" result="hardAlpha"/>
<feOffset dy="4"/>
<feGaussianBlur stdDeviation="2"/>
<feComposite in2="hardAlpha" operator="out"/>
<feColorMatrix type="matrix" values="0 0 0 0 0 0 0 0 0 0 0 0 0 0 0 0 0 0 0.25 0"/>
<feBlend mode="normal" in2="BackgroundImageFix" result="effect1_dropShadow_546_403"/>
<feBlend mode="normal" in="SourceGraphic" in2="effect1_dropShadow_546_403" result="shape"/>
<feColorMatrix in="SourceAlpha" type="matrix" values="0 0 0 0 0 0 0 0 0 0 0 0 0 0 0 0 0 0 127 0" result="hardAlpha"/>
<feOffset dx="5" dy="-4"/>
<feGaussianBlur stdDeviation="7.5"/>
<feComposite in2="hardAlpha" operator="arithmetic" k2="-1" k3="1"/>
<feColorMatrix type="matrix" values="0 0 0 0 0 0 0 0 0 0 0 0 0 0 0 0 0 0 0.25 0"/>
<feBlend mode="normal" in2="shape" result="effect2_innerShadow_546_403"/>
</filter>
<filter id="filter2_ii_546_403" x="-3.92871" y="-3.59082" width="249.034" height="289.974" filterUnits="userSpaceOnUse" color-interpolation-filters="sRGB">
<feFlood flood-opacity="0" result="BackgroundImageFix"/>
<feBlend mode="normal" in="SourceGraphic" in2="BackgroundImageFix" result="shape"/>
<feColorMatrix in="SourceAlpha" type="matrix" values="0 0 0 0 0 0 0 0 0 0 0 0 0 0 0 0 0 0 127 0" result="hardAlpha"/>
<feOffset dx="28" dy="-3"/>
<feGaussianBlur stdDeviation="14"/>
<feComposite in2="hardAlpha" operator="arithmetic" k2="-1" k3="1"/>
<feColorMatrix type="matrix" values="0 0 0 0 0 0 0 0 0 0 0 0 0 0 0 0 0 0 0.25 0"/>
<feBlend mode="normal" in2="shape" result="effect1_innerShadow_546_403"/>
<feColorMatrix in="SourceAlpha" type="matrix" values="0 0 0 0 0 0 0 0 0 0 0 0 0 0 0 0 0 0 127 0" result="hardAlpha"/>
<feOffset dx="-4" dy="-4"/>
<feGaussianBlur stdDeviation="2"/>
<feComposite in2="hardAlpha" operator="arithmetic" k2="-1" k3="1"/>
<feColorMatrix type="matrix" values="0 0 0 0 1 0 0 0 0 1 0 0 0 0 1 0 0 0 0.25 0"/>
<feBlend mode="normal" in2="effect1_innerShadow_546_403" result="effect2_innerShadow_546_403"/>
</filter>
<filter id="filter3_di_546_403" x="87.9998" y="257" width="46.0007" height="23.197" filterUnits="userSpaceOnUse" color-interpolation-filters="sRGB">
<feFlood flood-opacity="0" result="BackgroundImageFix"/>
<feColorMatrix in="SourceAlpha" type="matrix" values="0 0 0 0 0 0 0 0 0 0 0 0 0 0 0 0 0 0 127 0" result="hardAlpha"/>
<feOffset dy="4"/>
<feGaussianBlur stdDeviation="2"/>
<feComposite in2="hardAlpha" operator="out"/>
<feColorMatrix type="matrix" values="0 0 0 0 0 0 0 0 0 0 0 0 0 0 0 0 0 0 0.25 0"/>
<feBlend mode="normal" in2="BackgroundImageFix" result="effect1_dropShadow_546_403"/>
<feBlend mode="normal" in="SourceGraphic" in2="effect1_dropShadow_546_403" result="shape"/>
<feColorMatrix in="SourceAlpha" type="matrix" values="0 0 0 0 0 0 0 0 0 0 0 0 0 0 0 0 0 0 127 0" result="hardAlpha"/>
<feOffset dy="-6"/>
<feGaussianBlur stdDeviation="3"/>
<feComposite in2="hardAlpha" operator="arithmetic" k2="-1" k3="1"/>
<feColorMatrix type="matrix" values="0 0 0 0 1 0 0 0 0 1 0 0 0 0 1 0 0 0 0.46 0"/>
<feBlend mode="normal" in2="shape" result="effect2_innerShadow_546_403"/>
</filter>
<filter id="filter4_di_546_403" x="111.169" y="210" width="48.8306" height="48.8306" filterUnits="userSpaceOnUse" color-interpolation-filters="sRGB">
<feFlood flood-opacity="0" result="BackgroundImageFix"/>
<feColorMatrix in="SourceAlpha" type="matrix" values="0 0 0 0 0 0 0 0 0 0 0 0 0 0 0 0 0 0 127 0" result="hardAlpha"/>
<feOffset dy="4"/>
<feGaussianBlur stdDeviation="2"/>
<feComposite in2="hardAlpha" operator="out"/>
<feColorMatrix type="matrix" values="0 0 0 0 0 0 0 0 0 0 0 0 0 0 0 0 0 0 0.25 0"/>
<feBlend mode="normal" in2="BackgroundImageFix" result="effect1_dropShadow_546_403"/>
<feBlend mode="normal" in="SourceGraphic" in2="effect1_dropShadow_546_403" result="shape"/>
<feColorMatrix in="SourceAlpha" type="matrix" values="0 0 0 0 0 0 0 0 0 0 0 0 0 0 0 0 0 0 127 0" result="hardAlpha"/>
<feOffset dy="4"/>
<feGaussianBlur stdDeviation="2"/>
<feComposite in2="hardAlpha" operator="arithmetic" k2="-1" k3="1"/>
<feColorMatrix type="matrix" values="0 0 0 0 0 0 0 0 0 0 0 0 0 0 0 0 0 0 0.25 0"/>
<feBlend mode="normal" in2="shape" result="effect2_innerShadow_546_403"/>
</filter>
<filter id="filter5_di_546_403" x="59.1182" y="211.361" width="48.8306" height="48.8306" filterUnits="userSpaceOnUse" color-interpolation-filters="sRGB">
<feFlood flood-opacity="0" result="BackgroundImageFix"/>
<feColorMatrix in="SourceAlpha" type="matrix" values="0 0 0 0 0 0 0 0 0 0 0 0 0 0 0 0 0 0 127 0" result="hardAlpha"/>
<feOffset dy="4"/>
<feGaussianBlur stdDeviation="2"/>
<feComposite in2="hardAlpha" operator="out"/>
<feColorMatrix type="matrix" values="0 0 0 0 0 0 0 0 0 0 0 0 0 0 0 0 0 0 0.25 0"/>
<feBlend mode="normal" in2="BackgroundImageFix" result="effect1_dropShadow_546_403"/>
<feBlend mode="normal" in="SourceGraphic" in2="effect1_dropShadow_546_403" result="shape"/>
<feColorMatrix in="SourceAlpha" type="matrix" values="0 0 0 0 0 0 0 0 0 0 0 0 0 0 0 0 0 0 127 0" result="hardAlpha"/>
<feOffset dy="4"/>
<feGaussianBlur stdDeviation="2"/>
<feComposite in2="hardAlpha" operator="arithmetic" k2="-1" k3="1"/>
<feColorMatrix type="matrix" values="0 0 0 0 0 0 0 0 0 0 0 0 0 0 0 0 0 0 0.25 0"/>
<feBlend mode="normal" in2="shape" result="effect2_innerShadow_546_403"/>
</filter>
</defs>
</svg>
